<?xml version="1.0" standalone="no"?>
<!DOCTYPE svg PUBLIC "-//W3C//DTD SVG 20010904//EN"
 "http://www.w3.org/TR/2001/REC-SVG-20010904/DTD/svg10.dtd">
<svg version="1.0" xmlns="http://www.w3.org/2000/svg"
 width="2416.000000pt" height="2416.000000pt" viewBox="0 0 2416.000000 2416.000000"
 preserveAspectRatio="xMidYMid meet">
<metadata>
Created by potrace 1.11, written by Peter Selinger 2001-2013
</metadata>
<g transform="translate(0.000000,2416.000000) scale(0.100000,-0.100000)"
fill="#000000" stroke="none">
<path d="M8369 24123 c0 -21 0 -158 0 -305 l-1 -268 -46 -1 c-26 -1 -57 -3
-70 -4 -27 -3 -125 -46 -130 -57 -2 -5 -10 -8 -17 -8 -11 0 -72 -47 -97 -75
-41 -47 -59 -73 -64 -92 -4 -13 -10 -23 -15 -23 -5 0 -9 -7 -9 -15 0 -12 -17
-57 -40 -105 -13 -29 -8 -158 9 -221 10 -35 29 -87 44 -115 30 -60 115 -147
168 -175 21 -10 41 -23 44 -29 4 -6 11 -8 16 -5 5 4 9 1 9 -4 0 -6 5 -11 10
-11 6 0 59 -22 118 -49 59 -27 130 -59 157 -71 28 -13 92 -42 143 -66 52 -24
95 -44 97 -44 2 0 41 -17 87 -39 80 -37 137 -63 243 -111 28 -12 87 -40 133
-61 45 -22 84 -39 86 -39 2 0 42 -17 88 -39 45 -21 135 -62 198 -91 63 -29
153 -70 198 -91 46 -22 86 -39 87 -39 5 0 166 -75 218 -101 22 -10 45 -19 53
-19 8 0 14 -4 14 -10 0 -5 7 -10 15 -10 8 0 30 -9 50 -20 19 -11 36 -19 38
-18 1 0 34 -14 72 -32 64 -30 143 -65 300 -134 33 -15 67 -31 75 -36 8 -6 22
-13 30 -16 8 -3 53 -23 100 -44 47 -21 112 -50 145 -65 33 -15 83 -37 110 -50
46 -22 85 -39 220 -100 28 -13 82 -37 120 -55 39 -18 140 -64 225 -102 85 -39
187 -85 225 -103 39 -18 93 -42 120 -55 194 -87 271 -123 280 -130 6 -4 21
-11 35 -15 14 -4 52 -21 84 -36 33 -16 65 -29 73 -29 7 0 13 -4 13 -8 0 -4 17
-14 38 -22 20 -7 73 -30 117 -50 136 -64 174 -80 185 -80 5 0 10 -4 10 -10 0
-5 9 -10 20 -10 11 0 20 -4 20 -8 0 -5 6 -9 13 -9 6 0 48 -17 92 -38 44 -21
109 -51 145 -68 36 -17 70 -31 75 -33 6 -1 57 -24 115 -52 123 -58 177 -79
222 -88 58 -11 152 -6 196 10 23 8 43 15 45 14 12 -6 127 65 164 101 54 51
103 114 103 130 0 6 5 11 12 11 6 0 9 3 6 6 -3 3 3 31 14 62 53 150 9 338
-107 455 -25 26 -50 47 -54 47 -4 0 -16 9 -26 20 -15 17 -206 115 -360 186
-22 10 -43 22 -46 27 -4 5 -5 37 -3 70 2 34 6 136 9 227 3 91 7 182 8 203 1
20 -1 37 -6 37 -4 0 -5 6 -1 12 5 7 9 53 11 103 3 98 10 275 12 288 1 4 9 7
18 7 45 0 181 82 260 157 74 71 143 134 214 195 14 13 45 39 69 58 24 19 58
46 75 60 16 14 48 39 70 55 22 16 42 32 45 35 19 22 247 157 280 165 3 1 12 5
20 8 154 66 286 57 370 -25 22 -22 49 -57 59 -77 19 -36 62 -166 60 -179 -1
-4 0 -9 1 -12 1 -3 4 -18 6 -35 1 -16 6 -55 10 -85 14 -108 7 -503 -11 -680
-2 -19 -7 -69 -11 -110 -8 -91 -11 -115 -13 -115 -2 0 -4 -22 -6 -50 -5 -54
-12 -119 -20 -175 -3 -19 -7 -53 -9 -75 -4 -38 -13 -108 -21 -165 -2 -14 -7
-49 -10 -79 -4 -30 -8 -63 -11 -74 -2 -10 -6 -45 -10 -76 -3 -31 -8 -65 -10
-76 -2 -11 -6 -42 -9 -70 -3 -27 -8 -57 -10 -65 -2 -8 -7 -44 -11 -80 -7 -76
-10 -103 -18 -150 -3 -19 -8 -57 -11 -85 -3 -27 -8 -61 -10 -75 -6 -37 -20
-159 -29 -253 -2 -23 -6 -60 -9 -82 -4 -22 -9 -69 -13 -105 -4 -36 -8 -78 -10
-95 -3 -27 -6 -70 -19 -245 -2 -25 -6 -119 -9 -210 -3 -91 -6 -166 -7 -167 -1
-4 -1 -83 0 -85 1 -2 3 -57 6 -123 2 -66 6 -142 10 -170 19 -155 22 -173 36
-230 5 -22 11 -47 13 -56 15 -62 40 -130 70 -192 19 -40 65 -153 101 -252 37
-99 77 -208 91 -242 13 -34 24 -68 24 -76 0 -7 3 -17 7 -21 5 -4 8 -11 9 -14
0 -4 3 -14 6 -22 3 -8 13 -37 23 -65 9 -27 21 -59 26 -70 11 -25 89 -262 123
-377 26 -83 52 -190 62 -253 2 -16 7 -41 11 -55 3 -14 7 -41 8 -60 2 -19 4
-35 4 -35 7 0 13 -147 13 -290 1 -162 -6 -290 -16 -345 -3 -14 -8 -46 -10 -72
-3 -26 -12 -82 -21 -125 -9 -43 -19 -91 -21 -108 -2 -16 -20 -88 -39 -160 -20
-71 -38 -140 -40 -151 -7 -31 -115 -354 -130 -389 -22 -52 -46 -120 -45 -129
1 -5 -2 -12 -7 -15 -4 -3 -24 -44 -42 -91 -19 -47 -44 -107 -57 -135 -12 -27
-43 -99 -69 -160 -26 -60 -54 -120 -62 -132 -9 -13 -13 -23 -9 -23 3 0 -5 -19
-18 -42 -13 -24 -25 -47 -26 -53 -2 -10 -46 -106 -96 -210 -16 -33 -29 -62
-29 -65 -1 -3 -18 -41 -39 -85 -60 -124 -111 -233 -146 -310 -18 -38 -49 -106
-70 -150 -21 -44 -60 -128 -88 -186 -28 -58 -60 -130 -73 -160 -12 -30 -28
-61 -36 -70 -7 -8 -13 -18 -13 -22 0 -3 -5 -18 -12 -34 -6 -15 -12 -30 -13
-33 -1 -3 -30 -63 -64 -135 -70 -143 -135 -280 -218 -455 -30 -63 -70 -149
-90 -190 -19 -41 -39 -82 -44 -90 -5 -8 -12 -22 -15 -30 -4 -8 -27 -58 -52
-110 -25 -52 -46 -97 -47 -100 0 -3 -24 -52 -52 -110 -28 -58 -74 -159 -102
-225 -29 -66 -56 -129 -61 -140 -5 -11 -19 -45 -30 -75 -11 -30 -25 -64 -30
-75 -18 -36 -129 -354 -144 -410 -2 -5 -6 -17 -9 -25 -16 -42 -67 -219 -92
-320 -3 -8 -13 -49 -25 -90 -11 -41 -22 -86 -25 -100 -3 -14 -7 -34 -10 -45
-19 -81 -46 -204 -50 -225 -10 -59 -15 -86 -19 -110 -24 -116 -27 -139 -32
-255 -9 -223 -11 -875 -2 -875 5 0 4 -8 -1 -19 -6 -10 -8 -21 -5 -23 2 -3 7
-41 9 -84 7 -113 13 -191 20 -254 8 -81 15 -149 20 -200 2 -25 6 -59 9 -75 3
-17 8 -55 11 -85 3 -30 8 -68 11 -85 3 -16 7 -43 9 -60 2 -16 7 -41 10 -55 3
-14 8 -43 10 -65 6 -44 22 -136 31 -175 3 -14 7 -36 9 -50 1 -14 8 -47 15 -75
6 -27 13 -59 15 -70 6 -36 16 -78 46 -205 33 -134 39 -159 42 -175 2 -5 6 -16
10 -22 5 -7 6 -13 3 -13 -3 0 1 -18 9 -40 8 -22 12 -40 8 -40 -3 0 -1 -6 5
-13 6 -7 12 -24 14 -37 2 -14 7 -30 10 -36 4 -6 10 -26 13 -44 3 -18 26 -94
51 -169 25 -74 47 -142 49 -151 2 -8 13 -40 25 -70 12 -30 21 -57 21 -60 -1
-4 147 -461 253 -785 8 -22 26 -80 40 -130 15 -49 30 -97 33 -105 3 -8 7 -20
8 -26 5 -23 36 -129 42 -144 3 -8 7 -21 9 -27 1 -7 12 -42 23 -77 12 -36 23
-75 25 -88 3 -13 5 -25 6 -28 2 -3 2 -8 1 -12 0 -5 4 -8 10 -8 5 0 7 -4 4 -10
-3 -5 -1 -19 5 -30 6 -12 12 -31 14 -43 1 -12 5 -29 9 -37 3 -8 13 -42 22 -75
19 -68 44 -163 49 -185 3 -8 9 -27 15 -42 6 -16 9 -28 6 -28 -2 0 2 -18 10
-39 7 -22 11 -42 8 -45 -4 -3 -1 -6 6 -6 7 0 10 -4 7 -9 -3 -5 1 -27 9 -50 8
-23 12 -41 10 -41 -3 0 0 -12 6 -27 6 -16 13 -37 15 -48 8 -39 13 -61 39 -160
15 -55 28 -108 30 -118 2 -9 11 -45 20 -80 9 -34 18 -71 20 -82 8 -44 17 -82
30 -129 8 -27 13 -52 10 -54 -3 -3 -1 -10 4 -16 5 -6 11 -27 15 -46 3 -19 11
-57 17 -85 6 -27 13 -61 15 -75 1 -14 5 -35 8 -46 5 -25 16 -87 21 -124 2 -14
6 -38 9 -55 13 -76 25 -197 31 -295 2 -36 4 -65 5 -65 7 0 4 -353 -3 -362 -6
-9 -5 -13 2 -13 7 0 9 -5 6 -10 -4 -6 -8 -41 -11 -78 -7 -109 -12 -164 -19
-212 -4 -25 -8 -61 -11 -80 -4 -33 -8 -61 -18 -112 -3 -13 -7 -41 -11 -63 -3
-22 -10 -53 -15 -70 -5 -16 -12 -43 -15 -60 -9 -53 -13 -69 -25 -100 -6 -16
-11 -30 -10 -30 1 0 -3 -20 -10 -45 -7 -25 -14 -52 -15 -60 -2 -8 -4 -16 -5
-17 -2 -2 -3 -6 -4 -10 -3 -12 -27 -86 -33 -103 -4 -8 -7 -17 -8 -20 -3 -8
-16 -42 -38 -100 -12 -30 -22 -59 -23 -65 -1 -5 -16 -40 -33 -77 -41 -91 -63
-143 -59 -144 2 -1 -4 -10 -13 -20 -15 -18 -41 -75 -41 -91 0 -4 -5 -19 -10
-33 -5 -14 -12 -34 -15 -45 -8 -31 -10 -198 -2 -215 4 -8 15 -36 24 -63 33
-94 106 -179 209 -244 45 -29 73 -40 151 -60 42 -11 162 -9 208 3 26 7 50 13
52 13 3 1 7 2 10 2 3 1 8 2 13 3 11 3 93 47 106 57 87 69 107 95 169 222 72
147 100 207 103 222 1 6 12 33 25 60 12 28 22 52 22 55 0 3 7 21 15 40 38 92
138 386 144 425 2 11 6 25 10 30 3 6 20 71 37 145 17 74 36 151 41 170 5 19
14 64 19 100 6 36 13 76 16 90 2 13 7 42 10 65 3 22 8 51 10 65 34 195 50 657
33 925 -10 152 -17 236 -23 275 -11 76 -15 106 -20 140 -6 47 -16 111 -22 135
-2 11 -6 34 -8 50 -2 17 -8 50 -13 75 -11 50 -51 233 -58 259 -10 43 -35 148
-39 166 -4 22 -16 75 -19 90 -2 6 -6 24 -10 40 -4 17 -11 46 -16 65 -29 113
-34 135 -35 149 -1 9 -5 23 -8 31 -2 8 -17 65 -32 125 -14 61 -29 117 -32 125
-3 8 -7 22 -8 30 -5 26 -13 55 -29 108 -8 29 -12 52 -9 52 3 0 1 6 -4 12 -6 7
-13 29 -17 48 -3 19 -13 58 -21 85 -8 28 -38 133 -65 235 -28 102 -55 194 -60
205 -4 11 -11 31 -13 45 -3 14 -19 72 -37 130 -17 58 -38 130 -47 160 -8 30
-18 60 -21 65 -4 6 -7 15 -8 20 -2 15 -62 208 -91 295 -14 41 -26 82 -28 90
-4 18 -143 438 -152 460 -3 8 -7 20 -9 25 -1 6 -21 64 -44 130 -22 66 -43 127
-45 135 -2 8 -4 15 -5 15 -1 0 -3 9 -5 19 -2 11 -17 63 -34 115 -46 148 -60
201 -54 201 3 0 0 7 -7 15 -7 8 -10 15 -6 15 3 0 1 12 -5 27 -6 16 -14 46 -19
68 -5 22 -11 50 -14 62 -3 13 -8 31 -10 40 -2 10 -10 41 -16 68 -7 28 -14 59
-15 70 -2 11 -4 20 -5 20 -1 0 -3 9 -5 20 -2 11 -8 45 -14 75 -6 30 -13 67
-16 83 -9 50 -25 141 -29 177 -3 19 -7 46 -10 60 -4 23 -17 121 -21 165 -2 11
-6 52 -10 90 -4 39 -8 89 -9 112 0 24 -3 43 -6 43 -3 0 -6 30 -7 68 -1 37 -5
123 -9 192 -14 236 -8 884 9 955 3 11 8 42 11 69 29 214 99 499 199 811 28 88
50 163 49 168 -1 4 3 7 8 7 6 0 10 6 10 13 0 13 74 205 109 282 90 199 157
341 164 346 5 3 8 9 8 13 -1 6 39 93 135 291 26 55 48 102 49 105 1 3 15 33
33 66 17 34 28 64 25 68 -4 3 -1 6 5 6 7 0 12 4 12 9 0 8 244 533 258 556 4 6
7 12 8 15 0 3 13 32 29 65 15 33 50 107 76 164 27 57 49 105 49 107 0 1 24 54
54 116 29 62 65 138 79 168 14 30 46 100 72 155 27 55 49 105 51 110 3 14 110
241 135 288 11 20 17 37 13 37 -4 0 0 8 9 18 10 10 14 22 10 25 -3 4 -1 7 5 7
7 0 11 3 10 8 -1 8 16 47 115 262 51 113 149 335 151 345 1 6 11 30 22 55 11
25 29 68 39 95 11 28 22 52 25 55 4 3 9 14 13 25 8 28 55 156 66 180 22 47
139 392 147 434 3 13 10 34 16 45 6 12 11 22 10 24 -3 3 8 53 19 82 5 14 11
39 14 55 2 17 9 45 14 63 5 18 10 36 11 40 0 4 5 23 10 42 5 19 12 51 15 70 9
52 14 82 20 110 10 47 26 151 31 203 3 29 7 66 9 82 2 17 7 77 10 135 14 222
3 449 -31 642 -4 24 -9 52 -10 63 -2 11 -6 34 -9 51 -8 55 -74 262 -106 331
-17 37 -53 113 -81 168 -28 55 -56 110 -62 122 -6 13 -14 23 -18 23 -5 0 -8 4
-8 10 0 5 -18 39 -40 75 -22 36 -40 70 -40 75 0 6 -4 10 -10 10 -5 0 -10 7
-10 15 0 8 -3 15 -7 15 -5 0 -13 10 -19 23 -21 42 -59 112 -64 117 -14 14
-109 199 -152 295 -32 71 -140 371 -138 383 0 1 0 3 -1 5 0 1 -2 9 -4 17 -2 8
-13 51 -25 95 -12 44 -23 89 -25 100 -2 11 -6 29 -8 40 -2 11 -7 36 -11 55 -3
19 -9 46 -12 60 -10 48 -13 65 -18 110 -3 25 -8 56 -11 70 -7 34 -21 180 -32
325 -12 172 -6 548 12 735 7 73 16 166 20 195 2 17 6 55 9 86 4 31 8 65 11 76
2 12 6 43 10 70 4 26 9 59 11 73 2 14 7 44 10 66 2 23 7 53 9 65 3 13 7 38 10
54 3 17 10 53 15 80 5 28 12 66 15 85 3 19 8 42 10 50 2 8 7 31 10 50 3 19 8
46 10 60 3 14 8 36 10 50 3 14 8 40 11 59 3 18 8 43 10 55 2 11 7 37 10 56 3
19 7 43 10 52 6 21 16 73 29 153 2 11 9 45 15 75 6 30 13 69 16 85 2 17 9 56
15 87 5 32 12 79 14 105 3 27 8 59 11 73 4 14 7 39 9 55 1 17 6 64 11 105 5
41 8 163 8 270 -1 213 -8 291 -33 378 -5 18 -9 33 -9 35 1 1 -7 29 -16 62 -25
85 -112 261 -146 295 -3 3 -17 21 -31 40 -31 41 -124 134 -170 170 -18 14 -37
30 -43 35 -36 34 -263 162 -346 194 -19 8 -48 19 -65 26 -42 16 -92 34 -145
51 -46 15 -181 21 -235 10 -16 -3 -40 -8 -52 -10 -44 -9 -148 -40 -153 -45 -3
-3 -14 -8 -25 -9 -11 -2 -36 -11 -55 -20 -19 -9 -37 -17 -40 -17 -13 -1 -211
-104 -255 -132 -27 -18 -55 -33 -62 -33 -7 0 -13 -3 -13 -8 0 -4 -34 -27 -75
-51 -41 -25 -75 -48 -75 -53 0 -4 -5 -8 -11 -8 -6 0 -28 -13 -49 -30 -21 -16
-41 -30 -45 -30 -4 0 -22 -12 -39 -27 -52 -45 -90 -73 -97 -73 -4 0 -5 96 -2
213 3 116 6 273 7 347 l1 135 -70 2 c-38 1 -80 4 -92 7 -13 3 -25 0 -28 -5 -4
-5 -11 -6 -17 -3 -6 4 -68 8 -137 10 -69 1 -154 3 -189 5 -34 1 -65 -1 -68 -4
-3 -3 -8 -86 -10 -184 -2 -98 -6 -263 -9 -368 -2 -104 -7 -284 -9 -398 -3
-114 -8 -296 -11 -405 -3 -108 -8 -271 -10 -362 -2 -91 -7 -280 -11 -420 -3
-140 -7 -276 -8 -302 0 -27 -3 -48 -6 -48 -3 0 -39 18 -80 40 -41 21 -171 87
-288 147 -117 59 -270 137 -340 173 l-127 65 1 205 c1 113 5 345 9 515 4 171
8 378 9 460 1 83 6 156 10 163 4 7 2 12 -4 12 -6 0 -8 4 -5 10 10 16 12 80 3
80 -5 0 -6 5 -2 12 4 6 9 97 11 202 2 105 4 242 6 304 2 62 0 115 -3 117 -3 2
-118 6 -255 10 -138 4 -271 8 -297 10 -39 2 -48 -1 -49 -14 -1 -9 -2 -72 -4
-141 -2 -69 -4 -126 -5 -127 -7 -9 -4 -83 3 -83 5 0 5 -5 1 -12 -4 -6 -8 -68
-10 -137 -2 -125 -9 -382 -19 -741 -3 -102 -7 -270 -9 -373 -2 -104 -6 -190
-8 -192 -2 -3 -21 4 -41 15 -20 11 -38 19 -39 19 -2 -1 -39 14 -82 35 -43 20
-85 36 -92 36 -8 0 -14 4 -14 9 0 5 -17 15 -37 22 -21 6 -67 26 -103 42 -96
44 -180 83 -220 100 -19 9 -69 31 -110 50 -128 59 -169 77 -195 87 l-25 9 5
238 c3 131 8 321 10 423 16 689 16 767 3 767 -19 0 -262 14 -338 19 -168 10
-240 11 -246 3 -3 -5 0 -9 6 -9 6 0 8 -5 4 -11 -3 -6 -8 -66 -9 -133 -4 -147
-17 -644 -20 -741 -2 -38 -3 -112 -4 -162 -1 -68 -4 -93 -14 -93 -11 0 -71 25
-252 105 -22 10 -42 19 -45 19 -9 2 -84 37 -112 52 -15 8 -31 15 -35 15 -5 1
-26 9 -48 19 -22 9 -121 52 -220 95 -99 42 -184 81 -189 86 -6 5 -18 9 -28 9
-40 0 -53 30 -51 115 2 44 5 214 8 378 l6 297 -231 0 -230 0 -1 -37z"/>
<path d="M8175 22142 c-3 -3 -18 -8 -33 -10 -49 -6 -115 -46 -173 -105 -92
-92 -140 -195 -154 -328 -5 -56 -2 -88 19 -177 2 -12 19 -49 37 -82 47 -89
127 -158 256 -221 59 -29 114 -54 122 -55 8 -2 17 -8 21 -14 4 -7 11 -12 16
-12 14 -1 54 -17 114 -46 30 -15 57 -27 60 -27 3 -1 25 -11 50 -22 43 -20 133
-62 250 -116 30 -13 78 -35 105 -47 28 -12 82 -37 120 -55 97 -47 185 -84 189
-82 2 1 13 -7 25 -17 12 -11 21 -16 21 -13 0 4 17 -2 38 -12 36 -19 115 -55
217 -101 28 -12 76 -35 108 -51 31 -15 57 -26 57 -24 0 2 26 -10 57 -26 31
-16 63 -29 70 -29 7 0 13 -4 13 -10 0 -5 7 -10 15 -10 8 0 23 -4 33 -10 16 -9
150 -72 252 -118 25 -11 86 -39 135 -63 50 -23 95 -43 100 -45 6 -1 55 -23
110 -49 166 -78 198 -93 255 -118 78 -34 207 -94 386 -178 49 -23 95 -42 102
-42 6 0 12 -4 12 -9 0 -4 4 -8 9 -8 5 0 53 -21 108 -46 54 -25 114 -53 133
-61 19 -9 67 -30 105 -48 78 -37 143 -66 290 -132 55 -25 130 -60 168 -79 37
-18 70 -33 72 -33 3 0 19 -8 35 -16 17 -9 30 -12 30 -8 0 5 4 3 8 -2 4 -6 66
-37 137 -69 72 -33 162 -74 200 -92 39 -18 174 -80 300 -137 127 -58 266 -122
310 -142 44 -21 112 -52 151 -70 167 -77 347 -84 484 -17 103 50 208 174 248
293 37 110 9 270 -67 384 -44 68 -73 96 -136 136 -39 25 -270 139 -281 139
-11 0 -100 45 -106 54 -4 6 -8 7 -8 3 0 -5 -21 3 -47 16 -27 14 -70 35 -98 47
-27 13 -81 37 -120 55 -38 18 -95 44 -125 58 -30 13 -89 40 -130 60 -41 19
-95 44 -120 55 -25 11 -92 42 -150 70 -58 27 -168 77 -245 112 -77 35 -143 68
-147 74 -4 6 -8 7 -8 3 0 -5 -17 0 -37 11 -45 23 -136 65 -143 67 -3 0 -40 17
-83 38 -44 20 -83 37 -88 37 -5 0 -9 4 -9 8 0 5 -6 9 -12 9 -7 0 -67 26 -133
58 -66 32 -124 58 -130 60 -5 1 -59 26 -120 55 -104 49 -194 91 -205 95 -6 2
-101 46 -193 89 -39 19 -82 37 -94 41 -13 3 -23 11 -23 16 0 5 -6 9 -14 9 -12
0 -65 24 -281 125 -38 18 -92 42 -120 55 -27 12 -68 30 -91 41 -22 10 -46 19
-52 19 -7 0 -12 5 -12 10 0 6 -6 10 -12 10 -7 0 -40 14 -73 30 -33 16 -66 30
-72 30 -7 0 -13 5 -13 10 0 6 -6 10 -13 10 -8 0 -51 18 -96 40 -45 22 -88 40
-95 40 -7 0 -19 7 -26 15 -7 8 -17 15 -22 15 -9 0 -38 13 -188 83 -74 34 -109
50 -265 121 -44 20 -93 43 -108 51 -16 8 -35 15 -43 15 -8 0 -14 3 -14 8 0 4
-21 16 -48 26 -26 11 -107 48 -181 83 -73 35 -135 63 -136 63 -2 0 -51 23
-110 50 -59 28 -111 50 -116 50 -5 0 -9 4 -9 8 0 5 -6 9 -12 9 -7 0 -57 21
-111 47 -54 25 -108 48 -120 50 -12 3 -22 5 -22 6 0 11 -250 22 -260 12z"/>
<path d="M8130 20748 c-25 -5 -53 -9 -62 -9 -10 0 -18 -4 -18 -10 0 -5 -8 -9
-17 -9 -39 0 -184 -125 -198 -170 -4 -11 -10 -20 -15 -20 -4 0 -10 -8 -13 -17
-3 -10 -15 -43 -25 -73 -55 -157 -3 -377 118 -497 54 -55 140 -102 305 -168
11 -5 23 -8 26 -7 5 1 13 -110 10 -148 -1 -8 -1 -24 -1 -35 2 -34 2 -38 0
-113 -1 -40 0 -75 3 -78 2 -3 1 -21 -3 -40 -5 -20 -4 -34 2 -34 5 0 7 -4 3 -9
-4 -8 -6 -50 -4 -121 0 -13 0 -126 -1 -325 0 -38 0 -97 1 -130 1 -33 1 -66 0
-72 0 -7 -1 -21 -1 -30 0 -10 -1 -45 -1 -78 -1 -33 -1 -67 0 -75 0 -8 0 -44 0
-80 -1 -36 -1 -69 0 -75 0 -5 0 -46 0 -90 1 -44 1 -107 2 -140 1 -33 1 -67 0
-75 -1 -8 -1 -24 -1 -35 2 -27 1 -81 0 -400 0 -38 0 -97 1 -130 1 -33 1 -66 0
-72 0 -7 -1 -21 -1 -30 0 -10 -1 -45 -1 -78 -1 -33 -1 -67 0 -75 0 -8 0 -44 0
-80 -1 -36 -1 -69 0 -75 0 -5 0 -46 0 -90 1 -44 1 -107 2 -140 1 -33 1 -66 0
-72 0 -7 -1 -21 -1 -30 -1 -102 -2 -148 -3 -206 -1 -37 2 -67 6 -67 5 0 5 -5
2 -10 -4 -6 -6 -43 -5 -83 1 -39 1 -78 1 -84 -1 -7 -1 -21 -1 -30 0 -10 -1
-45 -1 -78 -1 -33 -1 -64 -1 -70 1 -14 2 -157 1 -175 0 -8 0 -44 0 -80 0 -36
0 -72 0 -80 0 -8 2 -26 5 -40 7 -33 15 -92 21 -155 3 -27 8 -61 12 -75 3 -14
7 -32 8 -40 3 -20 24 -128 31 -160 3 -14 7 -36 10 -48 3 -13 11 -47 19 -75 8
-29 17 -63 20 -77 33 -126 158 -451 177 -458 4 -2 8 -10 8 -18 0 -29 167 -289
203 -315 5 -3 7 -8 6 -10 -10 -12 207 -226 286 -281 5 -4 24 -18 40 -31 133
-102 404 -241 628 -322 l78 -28 -6 -386 c-5 -357 -9 -617 -19 -1233 -2 -130
-7 -241 -10 -247 -4 -6 -2 -11 4 -11 6 0 9 -4 5 -9 -3 -6 -8 -164 -11 -353 -6
-437 -12 -807 -20 -1273 -3 -203 -7 -470 -8 -592 0 -123 -3 -223 -6 -223 -3 0
-6 -9 -6 -20 0 -11 5 -20 11 -20 6 0 7 -3 0 -8 -6 -4 -11 -99 -11 -242 -2
-225 -9 -689 -20 -1280 -2 -151 -6 -409 -8 -572 -2 -163 -7 -301 -10 -307 -4
-5 -2 -12 4 -16 6 -4 7 -11 4 -17 -3 -5 -8 -134 -10 -286 -1 -153 -5 -419 -9
-592 -5 -305 -10 -579 -20 -1225 -3 -170 -5 -310 -5 -310 -2 0 -12 -745 -14
-932 0 -112 -5 -203 -9 -203 -4 0 -3 -8 2 -19 6 -10 8 -21 5 -24 -5 -4 -13
-441 -18 -939 0 -87 -5 -158 -9 -158 -5 0 -5 -6 -1 -12 9 -14 8 -114 -1 -129
-4 -5 -1 -9 5 -9 6 0 8 -5 5 -10 -3 -6 -8 -155 -11 -333 -3 -177 -6 -393 -8
-479 -1 -87 0 -158 4 -158 4 0 7 -55 7 -122 0 -128 4 -163 23 -226 35 -109
101 -205 233 -334 79 -78 237 -197 261 -196 5 0 12 -4 15 -9 3 -5 31 -19 61
-32 30 -12 64 -26 75 -31 67 -31 149 -40 352 -40 215 0 285 10 393 57 164 70
189 89 316 238 60 70 174 236 174 253 0 7 4 12 10 12 5 0 9 3 8 7 -1 5 10 33
24 64 31 67 56 176 56 239 0 25 1 50 2 55 5 34 1 285 -4 294 -4 6 -4 11 1 11
4 0 8 63 8 140 0 77 -4 140 -8 140 -5 0 -5 5 -1 12 8 12 12 801 16 3045 2 700
6 1273 10 1273 3 0 3 12 -1 26 -3 14 -4 52 -1 85 3 33 3 64 0 69 -3 5 -3 41 0
80 3 39 2 77 -3 85 -4 8 -4 15 0 15 9 0 9 57 0 66 -3 4 -2 15 3 25 7 12 7 20
0 24 -6 4 -8 11 -4 17 6 9 11 1053 17 3458 1 523 6 808 12 812 7 5 7 8 0 8
-11 0 -12 271 -1 289 4 6 4 11 -1 11 -4 0 -7 28 -6 63 1 34 2 80 2 102 0 22 0
47 0 55 0 8 0 51 0 95 0 44 0 85 0 90 0 6 2 484 4 1063 5 1066 6 1082 39 1082
6 0 39 20 75 45 35 25 66 45 68 45 6 0 29 18 124 100 83 70 166 153 245 244
28 33 59 68 69 78 9 10 17 21 17 24 0 3 7 12 15 20 8 9 36 46 62 82 26 37 51
69 55 70 5 2 8 9 8 15 1 7 14 28 30 47 17 19 30 40 30 47 0 7 4 13 9 13 5 0
13 10 17 23 4 12 10 24 14 27 9 6 72 112 102 170 13 25 26 47 29 50 3 3 23 41
45 85 21 44 42 81 47 83 4 2 7 8 7 14 0 5 25 61 55 124 30 63 55 118 55 122 0
5 9 27 20 50 23 46 42 92 46 107 1 6 6 21 12 35 5 14 10 28 11 33 0 4 7 20 15
35 33 64 138 407 161 527 5 22 9 45 11 52 2 10 11 123 19 233 2 25 6 72 9 105
9 103 22 280 30 401 3 45 7 94 10 110 3 16 8 74 12 129 3 55 8 120 10 145 2
25 6 74 8 110 8 99 17 211 21 250 2 19 4 52 4 74 l1 39 43 -8 c63 -11 157 -13
197 -3 19 5 45 11 58 14 27 6 129 52 150 67 84 65 179 191 187 247 0 3 3 10 7
15 8 14 21 104 19 140 -1 27 -9 74 -15 100 -9 32 -54 130 -71 153 -37 50 -129
131 -176 154 -19 10 -41 22 -49 28 -8 5 -37 19 -65 31 -47 20 -78 35 -298 138
-49 22 -90 41 -92 41 -2 0 -60 27 -130 60 -70 33 -128 60 -130 60 -2 0 -125
57 -280 130 -70 33 -179 83 -250 115 -54 25 -178 82 -265 123 -30 14 -57 26
-60 27 -3 1 -30 13 -60 27 -30 14 -84 39 -120 56 -36 16 -101 46 -145 67 -44
20 -105 48 -135 62 -30 14 -97 45 -149 69 -51 24 -95 44 -96 44 -3 0 -160 74
-275 128 -30 15 -57 27 -60 27 -3 1 -45 20 -93 43 -49 23 -90 42 -92 42 -2 0
-65 29 -140 65 -76 36 -139 65 -141 65 -1 0 -54 24 -116 53 -62 30 -142 67
-178 82 -36 16 -68 33 -71 38 -3 5 -8 8 -10 7 -2 -1 -17 3 -32 9 -16 6 -33 11
-38 11 -5 0 -9 5 -9 10 0 6 -7 10 -15 10 -9 0 -35 10 -58 22 -23 12 -44 23
-47 23 -3 1 -30 13 -60 27 -134 63 -191 88 -200 88 -6 0 -10 5 -10 10 0 6 -6
10 -13 10 -7 0 -35 11 -63 24 -53 25 -145 68 -234 109 -30 13 -89 40 -130 60
-72 33 -132 61 -250 114 -30 14 -91 42 -135 63 -44 20 -116 54 -160 74 -44 21
-98 46 -120 56 -188 87 -233 101 -343 104 -37 2 -87 -1 -112 -6z m599 -1212
c12 3 177 -64 264 -107 22 -10 45 -19 53 -19 8 0 14 -5 14 -12 0 -6 3 -8 7 -5
3 4 12 2 20 -4 7 -6 13 -9 13 -6 0 3 28 -8 63 -25 34 -17 67 -31 72 -32 6 -1
39 -15 75 -31 36 -17 67 -30 70 -30 3 0 31 -13 64 -28 32 -15 65 -27 72 -27 8
0 14 -4 14 -10 0 -5 3 -9 8 -8 4 1 20 -4 35 -10 16 -7 33 -12 38 -12 5 0 9 -5
9 -11 0 -5 4 -8 9 -4 5 3 12 1 16 -5 4 -6 11 -8 16 -5 10 7 29 -35 22 -48 -3
-5 -7 -88 -9 -185 -2 -97 -6 -280 -9 -407 -3 -126 -7 -324 -10 -440 -2 -115
-7 -311 -10 -435 -17 -684 -15 -642 -38 -707 -47 -137 -185 -269 -313 -299
-16 -4 -73 -8 -126 -9 -162 -5 -232 26 -389 170 -41 38 -75 103 -92 178 -13
58 -15 234 -15 1329 -1 694 2 1266 5 1271 3 4 14 0 25 -10 11 -10 23 -17 27
-17z m1599 -697 c26 -12 65 -30 87 -39 22 -10 75 -34 118 -54 42 -20 79 -36
81 -36 2 0 39 -17 82 -37 43 -20 81 -38 84 -38 3 -1 18 -7 33 -13 16 -7 33
-12 38 -12 5 0 9 -4 9 -8 0 -4 17 -14 38 -22 20 -7 71 -28 112 -47 41 -19 95
-43 120 -54 25 -11 56 -26 70 -32 l25 -13 -2 -244 c-1 -135 -5 -375 -9 -535
-3 -159 -7 -354 -8 -432 0 -77 -4 -139 -8 -136 -5 2 -4 -7 1 -20 6 -14 8 -27
6 -29 -2 -2 -7 -33 -10 -68 -4 -36 -12 -71 -18 -79 -7 -8 -11 -17 -10 -20 12
-29 -115 -211 -146 -211 -5 0 -11 -6 -14 -12 -3 -7 -22 -22 -43 -33 -22 -11
-41 -22 -44 -25 -8 -8 -72 -28 -114 -36 -57 -10 -125 -11 -176 -2 -60 11 -68
13 -76 21 -4 4 -14 7 -21 7 -8 0 -33 13 -57 29 -124 86 -220 221 -244 346 -7
35 -6 196 2 485 3 113 8 291 11 395 3 105 7 276 10 380 8 264 13 476 14 568 1
42 3 77 6 77 3 0 27 -10 53 -21z m1599 -710 c43 -23 80 -44 83 -48 3 -3 11 -7
18 -9 7 -1 31 -14 52 -27 22 -14 40 -22 40 -19 0 4 6 2 13 -4 15 -12 69 -42
167 -94 41 -22 102 -54 135 -72 33 -18 98 -53 145 -79 l85 -45 -1 -234 c-2
-280 -11 -631 -18 -675 -14 -94 -121 -225 -223 -273 -95 -45 -281 -23 -382 46
-49 33 -149 133 -156 156 -4 10 -10 18 -14 18 -10 0 -47 84 -56 126 -6 30 -6
202 0 399 7 209 17 571 20 710 4 167 4 165 10 165 3 0 40 -19 82 -41z"/>
</g>
</svg>
