<?xml version="1.0" encoding="utf-8"?>
<!-- Generator: Adobe Illustrator 15.1.0, SVG Export Plug-In  -->
<!DOCTYPE svg PUBLIC "-//W3C//DTD SVG 1.1//EN" "http://www.w3.org/Graphics/SVG/1.1/DTD/svg11.dtd" [
	<!ENTITY ns_flows "http://ns.adobe.com/Flows/1.0/">
]>
<svg version="1.1"
	 xmlns="http://www.w3.org/2000/svg" xmlns:xlink="http://www.w3.org/1999/xlink" xmlns:a="http://ns.adobe.com/AdobeSVGViewerExtensions/3.0/"
	 x="0px" y="0px" width="54px" height="151px" viewBox="0 0 54 151" overflow="visible" enable-background="new 0 0 54 151"
	 xml:space="preserve">
<defs>
</defs>
<path fill="#FFFFFF" d="M34.6,33.2c0.8,0.3,1.5,0.3,2.3,0.1c0.8-0.3,1.3-0.8,1.7-1.5c0.4-0.7,0.4-1.5,0.1-2.3
	c-0.3-0.8-0.8-1.3-1.6-1.7l-32.5-15c-0.8-0.3-1.6-0.3-2.4-0.1C1.5,13,1,13.5,0.6,14.3c-0.3,0.8-0.4,1.5-0.1,2.3
	c0.3,0.8,0.8,1.3,1.6,1.7L34.6,33.2z"/>
<path fill="#FFFFFF" d="M33.6,52.1l0.8-10c0.7,0.2,1.4,0.2,2.1-0.1c0.8-0.3,1.3-0.8,1.7-1.5c0.4-0.8,0.4-1.5,0.1-2.3
	c-0.3-0.8-0.9-1.3-1.6-1.7l-32.5-15c-0.8-0.3-1.5-0.3-2.3-0.1c-0.8,0.3-1.3,0.8-1.7,1.6c-0.3,0.8-0.3,1.5,0,2.3
	C0.5,26.1,1,26.6,1.8,27l1.2,0.5l0,25.1c1,8.8,4.6,11.5,9.7,13.3l-1.3,78.8c0,0.1,0.1,0.1,0.1,0.2c-0.2,2,0.2,2.9,1.8,4.4
	c1.7,1.6,4.6,2.7,8,0.9c0,0,2.8-2.5,2.7-4.8c0,0,0,0,0,0l0.3-78.4C29.6,64.2,33,55.4,33.6,52.1z M30.7,40.2l-0.1,4.6
	c0,0.8,0,1.5-0.6,2.1c-0.6,0.6-1,0.9-1.8,0.8c-0.8,0-1.5-0.3-2.1-1c-0.6-0.6-0.9-1.3-0.8-2.1l0.2-7.2L30.7,40.2z M15.7,33.1l6,2.7
	l-0.2,8.8c0,0.8-0.3,1.5-0.9,2.1c-0.6,0.6-1.3,0.9-2.2,0.9c-0.8,0-1.5-0.3-2.1-1c-0.6-0.6-0.9-1.3-0.9-2.1L15.7,33.1z M5.7,44.2
	l0-15.5l6.3,2.7l-0.3,12.9c0,0.8-0.3,1.5-0.9,2.1c-0.6,0.6-1.3,0.8-2.1,0.8c-0.8,0-1.5-0.3-2.1-0.9C5.9,45.8,5.7,45,5.7,44.2z"/>
<path fill="#FFFFFF" d="M49.4,36.1c-6-16.1,8.2-29.6-5.6-34.2c-2.8-0.9-8.1,3.4-8.1,3.4l0.1-4.4l-3.8-0.1l-0.4,15.6l-5.3-2.7l0.3-13
	l-3.8-0.1l-0.3,11.4l-6-2.7l0.2-8.9L13,0.2l-0.2,7.3L6.6,4.8L6.7,0L3.8,0L3.8,3.8C3.4,3.8,3,3.8,2.6,4C1.9,4.3,1.3,4.8,1,5.6
	C0.6,6.3,0.6,7.1,0.9,7.9c0.3,0.8,0.8,1.3,1.6,1.7L35,24.4c0.8,0.4,1.6,0.4,2.3,0.1c0.8-0.3,1.3-0.8,1.7-1.5
	c0.3-0.7,0.4-1.5,0.1-2.3c-0.3-0.8-0.9-1.3-1.6-1.7l-2.1-1l0.2-5.9c0.4-0.1,0.9-0.3,1.3-0.6c16.6-16.1,3,17.5,7.6,25.2
	c0,0,2.1,5.5,2.6,7.5c1.5,5.8-1,11.8-3.6,17.4c-2.5,5.4-5,10.7-7.6,16.1c-1.7,3.7-2.9,7.6-3.6,11.8c0,0.1,0,0.2,0,0.3
	c-0.1,1.7-0.1,3.4-0.1,5.1c0.2,5.3,1.1,10.5,2.9,15.6c2,5.9,3.8,11.9,5.2,18l0,0c1.4,5.9,0.8,11.6-1.9,16.9c0,0,0,0.1,0,0.1
	c-0.4,1-0.2,2.2,0.5,3c1.1,1.3,3,1.5,4.4,0.4c0.4-0.3,0.6-0.7,0.8-1.1c3.2-6.6,4-13.5,2.2-20.8c-1.4-6.3-3.2-12.5-5.3-18.6
	c-1.2-3.5-2-7-2.3-10.6c-0.2-2.5-0.3-4.9-0.1-7.5c0.5-3.5,1.5-6.8,3-9.9c2.6-5.4,5.1-10.8,7.6-16.2l0,0c3-6.5,6-13.6,4.1-20.4
	C52.4,40.9,50.6,39.1,49.4,36.1z"/>
</svg>
