<?xml version="1.0" encoding="utf-8"?>
<!-- Generator: Adobe Illustrator 15.1.0, SVG Export Plug-In  -->
<!DOCTYPE svg PUBLIC "-//W3C//DTD SVG 1.1//EN" "http://www.w3.org/Graphics/SVG/1.1/DTD/svg11.dtd" [
	<!ENTITY ns_flows "http://ns.adobe.com/Flows/1.0/">
]>
<svg version="1.1"
	 xmlns="http://www.w3.org/2000/svg" xmlns:xlink="http://www.w3.org/1999/xlink" xmlns:a="http://ns.adobe.com/AdobeSVGViewerExtensions/3.0/"
	 x="0px" y="0px" width="479px" height="309px" viewBox="-7.2 -15.2 479 309"
	 overflow="visible" enable-background="new -7.2 -15.2 479 309" xml:space="preserve">
<defs>
</defs>
<path fill="#FFFFFF" d="M358.8,237c-1,2.3-1,4.6-0.2,6.9c1,2.3,2.5,3.9,4.6,4.9c2.2,1.1,4.5,1.3,6.9,0.4c2.3-1,3.9-2.5,5-4.7
	l44.5-96.9c0.9-2.4,1-4.7,0.2-7c-0.9-2.2-2.5-3.9-4.7-4.9c-2.3-1-4.6-1.1-6.9-0.2c-2.3,0.9-4,2.4-5.1,4.7L358.8,237z"/>
<path fill="#FFFFFF" d="M302.6,234l29.9,2.5c-0.6,2.1-0.6,4.2,0.2,6.3c0.9,2.3,2.4,4,4.5,5c2.2,1.1,4.6,1.2,6.9,0.3
	c2.3-0.9,4-2.6,5-4.8l44.6-96.9c0.9-2.3,1-4.6,0.2-6.9c-0.9-2.3-2.4-3.9-4.7-5.1c-2.3-1-4.6-1-6.9-0.1c-2.3,0.8-4,2.3-5,4.6
	l-1.5,3.5l-74.7,0c-26.2,2.9-34.4,13.7-39.6,28.8l-234.7-3.7c-0.2,0.1-0.3,0.2-0.5,0.4c-6-0.6-8.7,0.6-13.2,5.4
	c-4.9,5.2-8.1,13.7-2.7,23.7c0,0,7.5,8.3,14.3,8.1c0,0,0.1,0.1,0.1,0.1l233.6,0.8C266.3,222.2,292.8,232.3,302.6,234z M337.8,225.3
	L324,225c-2.5-0.1-4.5,0-6.1-1.8c-1.8-1.8-2.6-2.9-2.5-5.4c0-2.4,1-4.5,2.8-6.3c1.7-1.7,3.8-2.6,6.3-2.5l21.5,0.6L337.8,225.3z
	 M359,180.7l-8,17.9l-26.2-0.7c-2.5-0.1-4.6-1-6.2-2.7c-1.7-1.9-2.6-4-2.5-6.4c0.1-2.5,1-4.6,2.9-6.3c1.7-1.8,3.8-2.7,6.3-2.6
	L359,180.7z M326,150.8l46.1,0.1l-8.1,18.8l-38.6-1c-2.5-0.1-4.6-1-6.2-2.7c-1.7-1.8-2.5-3.9-2.4-6.4c0.1-2.5,1-4.6,2.7-6.3
	C321.4,151.5,323.5,150.7,326,150.8z"/>
<path fill="#FFFFFF" d="M32.4,8.2c-2.6,0.3-4.8,1.4-6.5,3.4c-2.7,3.1-4.3,8-4.3,15.2v27.8h18.6v7.9H21.7v56h14v7.9H1v-7.9h12v-56H0
	v-7.9h13V29.5c0-10.9,1.9-18.4,6.8-23.4C23.6,2.4,28,0,34.7,0c7,0,12,3.1,12,8.5c0,3.9-2.7,6.7-6.3,6.7C36,15.2,33.5,12.3,32.4,8.2z
	"/>
<path fill="#FFFFFF" d="M50.9,90.5c0-20.7,14.7-37.2,36.4-37.2c21.7,0,36.4,16.6,36.4,37.2c0,20.7-14.7,37.2-36.4,37.2
	C65.6,127.7,50.9,111.2,50.9,90.5z M114.4,90.5c0-17.1-11.1-29.4-27.1-29.4c-16,0-27.1,12.3-27.1,29.4c0,17.2,11.1,29.4,27.1,29.4
	C103.3,119.9,114.4,107.7,114.4,90.5z"/>
<path fill="#FFFFFF" d="M190.9,61.5c0,3.9-3.1,7.3-7,7.3c-3.8,0-6.7-2.7-7.7-5.8c-5.6,1.5-12.3,8.4-16,15.9v39.6h14v7.9h-34.7v-7.9
	h12v-56h-12v-7.9h20.3v16.2c5.1-9.9,14.3-17.6,21.3-17.6C187.5,53.3,190.9,57.2,190.9,61.5z"/>
<path fill="#FFFFFF" d="M198.1,118.5h12V9.2h-12V1.4h20.7v90.5l34.2-29.7H237v-7.5h39.8v7.9h-12.5l-25.4,21.9l24.1,34.1h13.8v7.9
	h-18.6L232.6,89l-13.8,11.8v17.8h12.8v7.9h-33.5V118.5z"/>
<path fill="#FFFFFF" d="M319.3,8.2c-2.6,0.3-4.8,1.4-6.5,3.4c-2.7,3.1-4.3,8-4.3,15.2v27.8h18.6v7.9h-18.6v56h14v7.9h-34.7v-7.9h12
	v-56h-13v-7.9h13V29.5c0-10.9,1.9-18.4,6.8-23.4c3.8-3.8,8.2-6.1,14.9-6.1c7,0,12,3.1,12,8.5c0,3.9-2.7,6.7-6.3,6.7
	C322.9,15.2,320.3,12.3,319.3,8.2z"/>
<path fill="#FFFFFF" d="M352.4,118.2c-2.2-4.1-3.2-9-3.2-14.9V62.5h-12v-7.9h20.7v47.5c0,4.4,0.9,8,2.2,10.8
	c2.4,4.6,6.7,6.7,13.1,6.7c10.2,0,18.8-6.8,26-14.7V62.5h-12v-7.9h20.7v63.9h12v7.9h-20.3v-14.2c-6.7,8.5-17.6,15.5-27.7,15.5
	C362,127.7,355.8,124.1,352.4,118.2z"/>
<path fill="#FFFFFF" d="M431.6,118.5h12.6V9.2h-12.6V1.4H453v117.1h12.8v7.9h-34.2V118.5z"/>
<path fill="#FFFFFF" d="M350.3,281.1c48-18,88.3,24.3,102-16.8c2.8-8.4-10.2-24.2-10.2-24.2l13.1,0.2l0.4-11.4l-46.4-1.1l8-15.9
	l38.8,1l0.3-11.2l-34.1-0.8l8-17.7l26.5,0.6l0.3-11.2l-21.7-0.5l8.1-18.7l14.2,0.3l0.1-8.4l-11.2-0.2c0-1.2-0.2-2.3-0.6-3.5
	c-0.9-2.2-2.5-3.9-4.7-5c-2.3-1-4.6-1.1-6.9-0.2c-2.3,0.8-4,2.4-5.1,4.6L384.9,238c-1.1,2.3-1.2,4.6-0.2,6.9c0.9,2.3,2.4,4,4.6,5
	c2.2,1,4.5,1.1,6.9,0.3c2.3-1,3.9-2.6,5-4.8l2.9-6.4l17.6,0.5c0.3,1.3,0.8,2.6,1.7,3.8c48.1,49.5-52.3,8.8-75,22.7
	c0,0-16.4,6.4-22.3,7.9c-17.4,4.4-35.2-2.8-51.7-10.6c-15.9-7.4-32-14.9-48.1-22.5c-11-5.1-22.7-8.7-35.2-10.7
	c-0.3-0.1-0.6-0.1-0.8-0.1c-5.1-0.3-10.1-0.4-15.1-0.3c-15.8,0.5-31.3,3.4-46.4,8.6c-17.5,6-35.4,11.2-53.5,15.5l-0.1-0.1
	c-17.6,4.2-34.5,2.3-50.5-5.8c-0.1,0-0.2,0.1-0.3,0.1c-3-1.1-6.4-0.6-9.1,1.6c-3.9,3.3-4.4,9.1-1.1,13c0.9,1.1,2,1.9,3.3,2.4
	c19.7,9.6,40.3,11.8,62,6.6c18.7-4.3,37.1-9.6,55.4-15.9c10.4-3.6,21-5.9,31.7-7c7.3-0.7,14.7-0.9,22.2-0.4
	c10.3,1.6,20.2,4.6,29.5,9c16.1,7.7,32.1,15.2,48.1,22.6l-0.1,0.1c19.5,9,40.5,17.9,60.6,12.3C336,289.9,341.4,284.5,350.3,281.1z"
	/>
</svg>
